<svg height="24" viewBox="0 0 202 24" width="202" xmlns="http://www.w3.org/2000/svg"><g fill="none"><g fill="#43a4ff"><path d="m30.8192732 19.7066895c3.4915788-6.5545704 2.1452094-14.64113663-3.2810568-19.7066895l-1.8159112 3.1085558-9.6941724 16.5981337z"/><path d="m2.00215855 4.13748777c-3.47391182 6.37793823-2.34200217 14.28479163 2.78129312 19.42847373l11.33004453-19.42847373z"/></g><path d="m50.1821547 19.5878788c-1.6805482 0-3.1111148-.4130161-4.2917-1.2390484-1.1579033-.7977794-2.0479977-1.9105844-2.5586346-3.1988304-.5458098-1.4182223-.8130297-2.9236225-.787757-4.4378788-.0252727-1.51425624.2419472-3.01965652.787757-4.43787878.5107193-1.28820065 1.4007968-2.40098432 2.5586346-3.19883039 1.1795348-.82603226 2.6101015-1.23904839 4.2917-1.23904839 2.5061175 0 4.4098636.83778891 5.7112381 2.51336673 1.3013745 1.67557783 1.9520617 3.79586361 1.9520617 6.36085733 0 2.5649938-.6506872 4.6852796-1.9520617 6.3608574s-3.2051206 2.5143891-5.7112381 2.5164337zm0-1.4153981c1.3412876 0 2.4809093-.3736569 3.4188653-1.1209708.9151851-.7163228 1.6043163-1.6692891 1.9882986-2.749522.3994625-1.1558437.5960012-2.3689316.5813646-3.5883332.0146066-1.2193995-.1819313-2.43248254-.5813646-3.58833324-.3843202-1.07963726-1.0734172-2.03202467-1.9882986-2.74798852-.937956-.74731385-2.0775777-1.12097077-3.4188653-1.12097077-.9426401-.01788617-1.874004.20187457-2.7035819.63792591-.7645624.40665927-1.4111156.99481636-1.8795881 1.70982545-.4765847.73246324-.8327394 1.53286643-1.0555944 2.37228696-.4688863 1.79682142-.4688863 3.67922041 0 5.47604191.2226837.8394778.5788496 1.6399062 1.0555944 2.3722869.4681081.7156993 1.1147165 1.3044341 1.8795881 1.7113589.8297257.4355185 1.7610813.654749 2.7035819.6363925z" fill="#43a4ff"/><path d="m62.130303 23.8727273v-16.47839509h1.3862289v1.80555556h.0471713c.7801025-1.44032922 2.005543-2.16049383 3.6763216-2.16049383 1.5612193 0 2.7831093.61728395 3.6656699 1.85185185.8825606 1.23456791 1.3238409 2.69135801 1.3238409 4.37037041.0223524 1.5891412-.4440968 3.1458578-1.3344925 4.4537037-.8896617 1.3065843-2.1069867 1.9598765-3.651975 1.9598765-.7344735.0247971-1.4610374-.1602188-2.0968424-.5339506-.5701138-.3559671-1.0971141-.9140947-1.5810008-1.6743827h-.048693v6.4058642zm5.1051568-5.5108025c1.1554443 0 2.0339472-.5226337 2.6355086-1.5679012.6051737-1.0599729.9169249-2.2659929.9023422-3.4907408.0156726-1.2063595-.2965205-2.3937997-.9023422-3.43209874-.6015614-1.02160494-1.4800643-1.5324074-2.6355086-1.5324074-1.217325 0-2.1582158.50257201-2.8226724 1.50771604-.6733029 1.0388073-1.0202812 2.2602099-.9951632 3.5030864-.025118 1.2428766.3218603 2.4642792.9951632 3.5030864.6644566 1.0102881 1.6058546 1.5154321 2.824194 1.5154321z" fill="#43a4ff"/><path d="m81.3782225 19.5878788c-1.1688262 0-2.1588848-.3147212-2.9701758-.9441635-.7775266-.5837377-1.3706777-1.3823233-1.7076612-2.2990995-.3362234-.9578979-.5023429-1.9681163-.4907247-2.9842311 0-1.8086249.4365373-3.3142796 1.309612-4.51696405.8730747-1.20268447 2.1512885-1.80402671 3.8346414-1.80402671 3.5074915 0 5.2612373 2.16268622 5.2612373 6.48805866v.114955h-8.9090083c.0313983 1.3845688.3469004 2.5049966.9465062 3.3612834s1.5618111 1.2849411 2.8866159 1.285963c.8084365.0162237 1.5989698-.2411684 2.2454833-.7311137.6159805-.4442083 1.0378704-1.1114833 1.1774355-1.8622705h1.449385c-.2491605 1.2578628-.8026818 2.22093-1.6605638 2.8892016s-1.9821429 1.0024074-3.3727828 1.0024074zm-3.6249916-7.1471339h7.3608803c0-1.274212-.315502-2.2766193-.9465061-3.00722206-.6310041-.73060271-1.5623176-1.09641498-2.7939404-1.09743681-1.1536335 0-2.0459523.39697784-2.6769564 1.19093352-.6310041.79395565-.9454934 1.76519745-.9434774 2.91372535z" fill="#43a4ff"/><path d="m91.8181818 19.2818182v-11.8885525h1.3962638v1.75243448l.0476698.04769576c.7258111-1.43600133 1.9406221-2.154002 3.6444329-2.154002 1.3409053 0 2.3583736.44977613 3.0524048 1.3493284.6940309.89955226 1.0410469 2.05194336 1.0410469 3.45717326v7.4359226h-1.3962638v-7.6728629c0-.9785323-.2721791-1.76782018-.8165375-2.3678636-.5443583-.60004341-1.2896474-.90006512-2.2358673-.90006512-1.0569368 0-1.8770623.40259323-2.4603766 1.20777969-.5936097.84362243-.8988934 1.85657203-.8703583 2.88790123v6.8435721z" fill="#43a4ff"/><g fill="#000"><path d="m105.284848 18.9757576v-1.3996221l9.488897-14.03560394h-9.488897v-1.39810732h11.324243v1.39810732l-9.512426 14.03560394h9.512426v1.3996221z"/><path d="m124.838832 19.5878788c-1.168826 0-2.158884-.3147212-2.970174-.9441635-.777527-.5837377-1.370677-1.3823233-1.707661-2.2990995-.336285-.9578818-.502406-1.9681114-.490724-2.9842311 0-1.8086249.436537-3.3142796 1.309611-4.51696405.873074-1.20268447 2.151287-1.80402671 3.834639-1.80402671 3.50749 0 5.261235 2.16268622 5.261235 6.48805866v.114955h-8.907484c.031398 1.3845688.3469 2.5049966.946505 3.3612834.599606.8562868 1.561811 1.2849411 2.886615 1.285963.808453.0163422 1.599023-.241062 2.245482-.7311137.613451-.4459623 1.032539-1.1136586 1.169838-1.8638033h1.449384c-.24916 1.2578629-.802681 2.2209301-1.660563 2.8892017-.857881.6682716-1.980116 1.0029183-3.366703 1.0039401zm-3.623461-7.1471339h7.365424c0-1.274212-.315502-2.2766193-.946505-3.00722206-.631004-.73060271-1.562317-1.09641498-2.793939-1.09743681-1.153633 0-2.045951.39697784-2.676955 1.19093352-.631004.79395565-.947012 1.76519745-.948025 2.91372535z"/><path d="m134.972727 23.8727273v-16.47839509h1.381665v1.80555556h.044128c.780103-1.44032922 2.006052-2.16049383 3.677846-2.16049383 1.56122 0 2.783111.61728395 3.665672 1.85185185.882561 1.23456791 1.325871 2.69135801 1.329929 4.37037041.022251 1.5891267-.44419 3.1458127-1.334494 4.4537037-.889662 1.3065843-2.106988 1.9598765-3.651977 1.9598765-.734465.0247139-1.461008-.1602964-2.096844-.5339506-.570114-.3559671-1.097115-.9140947-1.581002-1.6743827h-.047171v6.4058642zm5.10516-5.5108025c1.155446 0 2.033949-.5226337 2.635511-1.5679012.605104-1.0600023.91685-2.2660022.902343-3.4907408.014754-1.2047824-.297404-2.3904864-.902343-3.42746911-.601562-1.02160494-1.480065-1.5324074-2.635511-1.5324074-1.217325 0-2.158217.50257201-2.822674 1.50771604-.673303 1.03880727-1.020282 2.26020987-.995164 3.50308647-.025214 1.2428892.321773 2.46432.995164 3.5030864.663443 1.0072016 1.604334 1.5108024 2.822674 1.5108024z"/><path d="m149.357576 23.8727273v-16.47839509h1.382081v1.80555556h.047186c.780338-1.44032922 2.006656-2.16049383 3.678954-2.16049383 1.561691 0 2.78395.61728395 3.666777 1.85185185.882827 1.23456791 1.324241 2.69135801 1.324241 4.37037041.022258 1.5891267-.444323 3.1458127-1.334896 4.4537037-.88993 1.3065843-2.107623 1.9598765-3.653078 1.9598765-.734687.0247139-1.461448-.1602964-2.097476-.5339506-.570286-.3559671-1.097445-.9140947-1.581478-1.6743827h-.047186v6.4058642zm5.106699-5.5108025c1.155793 0 2.034561-.5226337 2.636304-1.5679012.605287-1.0600023.917127-2.2660022.902615-3.4907408.015599-1.2063496-.296683-2.3937686-.902615-3.43209874-.601743-1.02160494-1.480511-1.5324074-2.636304-1.5324074-1.217693 0-2.158868.50257201-2.823525 1.50771604-.673507 1.0388073-1.02059 2.2602099-.995464 3.5030864-.025222 1.2428893.321869 2.4643201.995464 3.5030864.664657 1.0102881 1.605832 1.5154321 2.823525 1.5154321z"/><path d="m168.911559 19.5878788c-1.168826 0-2.158884-.3147212-2.970174-.9441635-.777526-.5837377-1.370677-1.3823233-1.70766-2.2990995-.336285-.9578818-.502407-1.9681114-.490725-2.9842311 0-1.8086249.436537-3.3142796 1.309611-4.51696405.873075-1.20268447 2.151288-1.80402671 3.83464-1.80402671 3.507489 0 5.261234 2.16268622 5.261234 6.48805866v.114955h-8.909003c.031398 1.3845688.3469 2.5049966.946505 3.3612834.599606.8562868 1.561811 1.2849411 2.886615 1.285963.808453.0163422 1.599023-.241062 2.245482-.7311137.613451-.4459623 1.032539-1.1136586 1.169838-1.8638033h1.456981c-.249161 1.2578629-.802682 2.2209301-1.660563 2.8892017-.857882.6682716-1.982142 1.0029183-3.372781 1.0039401zm-3.626499-7.1471339h7.365424c0-1.274212-.315502-2.2766193-.946506-3.00722206-.631003-.73060271-1.562316-1.09641498-2.793938-1.09743681-1.153633 0-2.045952.39697784-2.676955 1.19093352-.631004.79395565-.947012 1.76519745-.948025 2.91372535z"/><path d="m179.045455 18.9757576v-16.83333336h1.224242v16.83333336z"/><path d="m185.472727 4.14372726v-2.00130302h1.836364v2.00130302zm.3535 14.82446684v-11.68107479h1.366561v11.68863829z"/><path d="m192.818182 19.2818182v-11.8885525h1.396029v1.75243448l.047662.04769576c.72569-1.43600133 1.940297-2.154002 3.643822-2.154002 1.34068 0 2.358491.44977613 3.05343 1.3493284.69494.89955226 1.041898 2.05194336 1.040873 3.45717326l.000002 7.4359226h-1.396032v-7.6728629c0-.9785323-.272133-1.76782018-.8164-2.3678636-.544268-.60004341-1.289432-.90006512-2.235493-.90006512-1.056759 0-1.876747.40259323-2.459964 1.20777969-.596009.84329383-.903433 1.85689763-.876362 2.88943983v6.8435721z"/></g></g></svg>