<svg enable-background="new 0 0 202 24" viewBox="0 0 202 24" xmlns="http://www.w3.org/2000/svg"><path d="m30.8 19.7c3.5-6.5 2.2-14.6-3.3-19.7l-1.8 3.1-9.7 16.6z" fill="#43a4ff"/><path d="m2 4.1c-3.5 6.4-2.3 14.3 2.8 19.4l11.3-19.4z" fill="#43a4ff"/><path d="m50.2 19.6c-1.7 0-3.1-.4-4.3-1.2s-2-1.9-2.6-3.2c-.5-1.4-.8-2.9-.8-4.4s.2-3 .8-4.4c.5-1.3 1.4-2.4 2.6-3.2s2.6-1.2 4.3-1.2c2.5 0 4.4.8 5.7 2.5s2 3.8 2 6.4-.7 4.7-2 6.4c-1.3 1.4-3.2 2.3-5.7 2.3zm0-1.4c1.3 0 2.5-.4 3.4-1.1s1.6-1.7 2-2.7c.4-1.2.6-2.4.6-3.6s-.2-2.4-.6-3.6c-.4-1.1-1.1-2-2-2.7s-2.1-1.1-3.4-1.1c-.9 0-1.9.2-2.7.6s-1.4 1-1.9 1.7-.8 1.5-1.1 2.4c-.5 1.8-.5 3.7 0 5.5.2.8.6 1.6 1.1 2.4.5.7 1.1 1.3 1.9 1.7.8.3 1.7.5 2.7.5z" fill="#43a4ff"/><path d="m62.1 23.9v-16.5h1.4v1.8c.8-1.4 2-2.2 3.7-2.2 1.6 0 2.8.6 3.7 1.9s1.3 2.7 1.3 4.4c0 1.6-.4 3.1-1.3 4.5-.9 1.3-2.1 2-3.7 2-.7 0-1.5-.2-2.1-.5-.6-.4-1.1-.9-1.6-1.7v6.4h-1.4zm5.1-5.5c1.2 0 2-.5 2.6-1.6s.9-2.3.9-3.5-.3-2.4-.9-3.4-1.5-1.5-2.6-1.5c-1.2 0-2.2.5-2.8 1.5-.7 1-1 2.3-1 3.5s.3 2.5 1 3.5 1.6 1.5 2.8 1.5z" fill="#43a4ff"/><path d="m81.4 19.6c-1.2 0-2.2-.3-3-.9s-1.4-1.4-1.7-2.3c-.3-1-.5-2-.5-3 0-1.8.4-3.3 1.3-4.5s2.2-1.9 3.9-1.9c3.5 0 5.3 2.2 5.3 6.5v.1h-8.9c0 1.4.3 2.5.9 3.4s1.6 1.3 2.9 1.3c.8 0 1.6-.2 2.2-.7.6-.4 1-1.1 1.2-1.9h1.4c-.2 1.3-.8 2.2-1.7 2.9-.8.7-1.9 1-3.3 1zm-3.6-7.2h7.4c0-1.3-.3-2.3-.9-3s-1.6-1.1-2.8-1.1-2 .4-2.7 1.2-1 1.8-1 2.9z" fill="#43a4ff"/><path d="m91.8 19.3v-11.9h1.4v1.8c.8-1.4 2-2.2 3.7-2.2 1.3 0 2.4.4 3.1 1.3s1 2.1 1 3.5v7.4h-1.4v-7.7c0-1-.3-1.8-.8-2.4s-1.3-.9-2.2-.9c-1.1 0-1.9.4-2.5 1.2s-.9 1.9-.9 2.9v6.8z" fill="#43a4ff"/><g fill="#fff"><path d="m105.3 19v-1.4l9.5-14.1h-9.5v-1.4h11.3v1.4l-9.5 14.1h9.5v1.4z"/><path d="m124.8 19.6c-1.2 0-2.2-.3-3-.9s-1.4-1.4-1.7-2.3c-.3-1-.5-2-.5-3 0-1.8.4-3.3 1.3-4.5s2.2-1.8 3.8-1.8c3.5 0 5.3 2.2 5.3 6.5v.1h-8.9c0 1.4.3 2.5.9 3.4s1.6 1.3 2.9 1.3c.8 0 1.6-.2 2.2-.7.6-.4 1-1.1 1.2-1.9h1.4c-.2 1.3-.8 2.2-1.7 2.9s-1.8.9-3.2.9zm-3.6-7.2h7.4c0-1.3-.3-2.3-.9-3s-1.6-1.1-2.8-1.1-2 .4-2.7 1.2-1 1.8-1 2.9z"/><path d="m135 23.9v-16.5h1.4v1.8c.8-1.4 2-2.2 3.7-2.2 1.6 0 2.8.6 3.7 1.9.9 1.2 1.3 2.7 1.3 4.4 0 1.6-.4 3.1-1.3 4.5-.9 1.3-2.1 2-3.7 2-.7 0-1.5-.2-2.1-.5-.6-.4-1.1-.9-1.6-1.7v6.4h-1.4zm5.1-5.5c1.2 0 2-.5 2.6-1.6s.9-2.3.9-3.5-.3-2.4-.9-3.4-1.5-1.5-2.6-1.5c-1.2 0-2.2.5-2.8 1.5-.7 1-1 2.3-1 3.5s.3 2.5 1 3.5c.6 1 1.6 1.5 2.8 1.5z"/><path d="m149.4 23.9v-16.5h1.4v1.8c.8-1.4 2-2.2 3.7-2.2 1.6 0 2.8.6 3.7 1.9s1.3 2.7 1.3 4.4c0 1.6-.4 3.1-1.3 4.5-.9 1.3-2.1 2-3.7 2-.7 0-1.5-.2-2.1-.5-.6-.4-1.1-.9-1.6-1.7v6.4h-1.4zm5.1-5.5c1.2 0 2-.5 2.6-1.6s.9-2.3.9-3.5-.3-2.4-.9-3.4-1.5-1.5-2.6-1.5c-1.2 0-2.2.5-2.8 1.5-.7 1-1 2.3-1 3.5s.3 2.5 1 3.5c.6 1 1.5 1.5 2.8 1.5z"/><path d="m168.9 19.6c-1.2 0-2.2-.3-3-.9s-1.4-1.4-1.7-2.3c-.3-1-.5-2-.5-3 0-1.8.4-3.3 1.3-4.5s2.2-1.8 3.8-1.8c3.5 0 5.3 2.2 5.3 6.5v.1h-8.9c0 1.4.3 2.5.9 3.4s1.6 1.3 2.9 1.3c.8 0 1.6-.2 2.2-.7.6-.4 1-1.1 1.2-1.9h1.5c-.2 1.3-.8 2.2-1.7 2.9-.8.6-1.9.9-3.3.9zm-3.6-7.2h7.4c0-1.3-.3-2.3-.9-3s-1.6-1.1-2.8-1.1-2 .4-2.7 1.2-1 1.8-1 2.9z"/><path d="m179 19v-16.9h1.3v16.9z"/><path d="m185.5 4.1v-2h1.8v2zm.3 14.9v-11.7h1.4v11.7z"/><path d="m192.8 19.3v-11.9h1.4v1.8c.7-1.4 1.9-2.2 3.6-2.2 1.3 0 2.4.4 3.1 1.3s1 2.1 1 3.5v7.4h-1.4v-7.7c0-1-.3-1.8-.8-2.4s-1.3-.9-2.2-.9c-1.1 0-1.9.4-2.5 1.2s-.9 1.9-.9 2.9v6.8h-1.3z"/></g></svg>